HIERARCHY
ROOT Pelvis
{
	OFFSET 0.000000 0.000000 0.000000
	CHANNELS 6 Xposition Yposition Zposition Xrotation Yrotation Zrotation
	JOINT LeftUpLeg_virtual
	{
		OFFSET 0.000000 0.000000 0.000000
		CHANNELS 3 Xrotation Yrotation Zrotation
		JOINT LeftUpLeg
		{
			OFFSET 18.735201 -5.666702 -4.541200
			CHANNELS 3 Xrotation Yrotation Zrotation
			JOINT LeftLeg
			{
				OFFSET -0.021200 -31.938179 0.493100
				CHANNELS 3 Xrotation Yrotation Zrotation
				JOINT LeftFoot
				{
					OFFSET 0.021200 -31.938179 -4.336299
					CHANNELS 3 Xrotation Yrotation Zrotation
					JOINT LeftToeBase
					{
						OFFSET 0.943001 -26.722000 15.023500
						CHANNELS 3 Xrotation Yrotation Zrotation
						End Site
						{
							OFFSET 0 0 0
						}
					}
				}
			}
		}
	}
	JOINT RightUpLeg_virtual
	{
		OFFSET 0.000000 0.000000 0.000000
		CHANNELS 3 Xrotation Yrotation Zrotation
		JOINT RightUpLeg
		{
			OFFSET -18.735201 -5.666702 -4.541200
			CHANNELS 3 Xrotation Yrotation Zrotation
			JOINT RightLeg
			{
				OFFSET 0.018946 -31.938133 0.493100
				CHANNELS 3 Xrotation Yrotation Zrotation
				JOINT RightFoot
				{
					OFFSET -0.018946 -31.938126 -4.336299
					CHANNELS 3 Xrotation Yrotation Zrotation
					JOINT RightToeBase
					{
						OFFSET -0.943001 -26.722004 15.023500
						CHANNELS 3 Xrotation Yrotation Zrotation
						End Site
						{
							OFFSET 0 0 0
						}
					}
				}
			}
		}
	}
	JOINT Hips_virtual
	{
		OFFSET 0.000000 0.000000 0.000000
		CHANNELS 3 Xrotation Yrotation Zrotation
		JOINT Hips
		{
			OFFSET -0.000000 -0.000000 -0.000000
			CHANNELS 3 Xrotation Yrotation Zrotation
			JOINT Spine
			{
				OFFSET 0.000000 10.199997 -0.299500
				CHANNELS 3 Xrotation Yrotation Zrotation
				JOINT Spine1
				{
					OFFSET 0.000000 11.900002 -1.516600
					CHANNELS 3 Xrotation Yrotation Zrotation
					JOINT Spine2
					{
						OFFSET 0.000000 13.600006 -2.842500
						CHANNELS 3 Xrotation Yrotation Zrotation
						JOINT Neck_virtual
						{
							OFFSET 0.000000 0.000000 0.000000
							CHANNELS 3 Xrotation Yrotation Zrotation
							JOINT Neck
							{
								OFFSET 0.000000 9.624100 -2.890100
								CHANNELS 3 Xrotation Yrotation Zrotation
								JOINT Head
								{
									OFFSET 0.000000 14.068802 -1.351900
									CHANNELS 3 Xrotation Yrotation Zrotation
									End Site
									{
										OFFSET 0 0 0
									}
								}
							}
						}
						JOINT LeftShoulder_virtual
						{
							OFFSET 0.000000 0.000000 0.000000
							CHANNELS 3 Xrotation Yrotation Zrotation
							JOINT LeftShoulder
							{
								OFFSET 15.263000 10.923401 -0.547700
								CHANNELS 3 Xrotation Yrotation Zrotation
								JOINT LeftArm
								{
									OFFSET 25.438599 -2.830597 -13.032500
									CHANNELS 3 Xrotation Yrotation Zrotation
									JOINT LeftForeArm
									{
										OFFSET 29.960503 0.000000 0.000000
										CHANNELS 3 Xrotation Yrotation Zrotation
										JOINT LeftHand
										{
											OFFSET 27.849251 0.000000 0.000000
											CHANNELS 3 Xrotation Yrotation Zrotation
											End Site
											{
												OFFSET 0 0 0
											}
										}
									}
								}
							}
						}
						JOINT RightShoulder_virtual
						{
							OFFSET 0.000000 0.000000 0.000000
							CHANNELS 3 Xrotation Yrotation Zrotation
							JOINT RightShoulder
							{
								OFFSET -15.263000 10.923401 -0.547700
								CHANNELS 3 Xrotation Yrotation Zrotation
								JOINT RightArm
								{
									OFFSET -25.438599 -2.830597 -13.032500
									CHANNELS 3 Xrotation Yrotation Zrotation
									JOINT RightForeArm
									{
										OFFSET -29.960503 0.000000 0.000000
										CHANNELS 3 Xrotation Yrotation Zrotation
										JOINT RightHand
										{
											OFFSET -27.849251 0.000000 0.000000
											CHANNELS 3 Xrotation Yrotation Zrotation
											End Site
											{
												OFFSET 0 0 0
											}
										}
									}
								}
							}
						}
					}
				}
			}
		}
	}
}
MOTION
Frames: 4
Frame Time: 0.03333333
-23.552168 130.372818 35.912678 0.000000 0.000000 0.000000 2.234225 -20.009657 2.300659 -29.385868 9.243812 4.987895 39.040945 5.964096 4.294360 28.242854 -0.680479 -4.352725 0.000000 0.000000 0.000000 2.234225 -20.009657 2.300659 -4.322672 -6.793970 -4.571824 15.064288 -22.808256 3.374725 37.783705 -3.294798 -2.696449 0.000000 0.000000 0.000000 2.234225 -20.009657 2.300659 0.000000 0.000002 0.000000 -1.335773 -0.033433 -0.952623 -2.672069 -0.088748 -1.714353 0.000000 0.000000 0.000000 -2.672071 -0.088753 -1.714355 -5.846142 0.463916 0.094879 0.000000 0.000000 0.000000 -2.672071 -0.088753 -1.714355 3.677176 6.194745 24.143602 -59.663348 -29.699288 18.551111 -28.273611 -50.304808 4.575664 0.000000 0.000000 0.000000 -2.672071 -0.088753 -1.714355 -5.618865 -8.488122 -29.945250 -79.202450 30.402104 25.861297 -28.766943 45.497335 -9.943797 0.000000 0.000000 0.000000 
-23.674810 129.200851 36.603260 0.000000 0.000000 0.000000 1.982017 -19.345189 2.004196 -30.477977 8.881274 4.647677 39.469843 7.849815 4.015463 31.919567 -0.470053 -2.691489 0.000000 0.000000 0.000000 1.982017 -19.345189 2.004196 -6.161880 -7.012220 -5.266463 16.159331 -22.009310 3.378009 40.499228 -3.265480 -3.227086 0.000000 0.000000 0.000000 1.982017 -19.345189 2.004196 0.000000 0.000002 0.000000 -1.424077 -0.101585 -0.871765 -2.849546 -0.229106 -1.624431 0.000000 0.000000 0.000000 -2.849545 -0.229103 -1.624431 -5.483484 0.394935 -0.159990 0.000000 0.000000 0.000000 -2.849545 -0.229103 -1.624431 4.781805 6.071384 25.311129 -58.312767 -25.193209 16.875552 -25.969899 -55.829597 7.584444 0.000000 0.000000 0.000000 -2.849545 -0.229103 -1.624431 -3.148150 -6.622060 -28.188293 -74.921165 31.517252 20.078724 -28.646428 45.441098 -7.798835 0.000000 0.000000 0.000000 
-23.783888 127.825188 37.299217 0.000000 0.000000 0.000000 1.646855 -18.551952 1.682703 -31.366517 8.418307 4.528516 39.928524 9.923210 3.325367 35.390861 -0.164158 -0.667393 0.000000 0.000000 0.000000 1.646855 -18.551952 1.682703 -8.047512 -6.920530 -5.682732 17.230049 -20.694041 3.199680 43.470725 -2.913107 -4.021778 0.000000 0.000000 0.000000 1.646855 -18.551952 1.682703 0.000000 0.000001 0.000000 -1.509342 -0.134231 -0.796276 -3.020491 -0.300869 -1.519637 0.000000 0.000000 0.000000 -3.020490 -0.300874 -1.519637 -5.209424 0.329002 -0.448322 0.000000 0.000000 0.000000 -3.020490 -0.300874 -1.519637 5.846714 6.266297 26.599543 -57.037189 -19.937329 14.143170 -23.702548 -62.699511 11.221770 0.000000 0.000000 0.000000 -3.020490 -0.300874 -1.519637 -2.023505 -4.492272 -27.139985 -68.184303 31.329436 12.866671 -29.783023 45.104066 -2.566838 0.000000 0.000000 0.000000 
-23.889153 126.356094 37.996712 0.000000 0.000000 0.000000 1.244089 -17.613683 1.344871 -32.046886 8.351338 4.412599 40.324880 11.540283 2.919294 38.396287 0.425118 1.324808 0.000000 0.000000 0.000000 1.244089 -17.613683 1.344871 -9.703809 -6.744434 -5.619101 18.164263 -19.757145 1.945238 46.245175 -1.821707 -3.809844 0.000000 0.000000 0.000000 1.244089 -17.613683 1.344871 0.000000 -0.000001 0.000000 -1.645555 -0.118993 -0.671007 -3.292605 -0.278829 -1.303055 0.000000 0.000000 0.000000 -3.292606 -0.278820 -1.303055 -4.972350 0.277719 -0.632051 0.000000 0.000000 0.000000 -3.292606 -0.278820 -1.303055 6.717991 6.329316 27.810083 -55.092589 -13.574170 10.508925 -20.928101 -71.280127 15.947216 0.000000 0.000000 0.000000 -3.292606 -0.278820 -1.303055 -0.962622 -3.617258 -26.818762 -63.904268 30.681124 10.710912 -28.415940 46.120395 -0.431034 0.000000 0.000000 0.000000 
